<?xml version="1.0" encoding="UTF-8" standalone="no"?>

<svg
   width="1500"
   height="500"
   viewBox="0 0 396.875 132.29167"
   version="1.1"
   id="svg5"
   sodipodi:docname="WSOFT-Full.svg"
   xml:space="preserve"
   xmlns:sodipodi="http://sodipodi.sourceforge.net/DTD/sodipodi-0.dtd"
   xmlns="http://www.w3.org/2000/svg"
   xmlns:svg="http://www.w3.org/2000/svg"><sodipodi:namedview
     id="namedview7"
     pagecolor="#ffffff"
     bordercolor="#666666"
     borderopacity="1.0"
     showgrid="false"
     showguides="false"></sodipodi:namedview><defs
     id="defs2" /><g
     id="layer1"><path
       style="font-size:63.5px;line-height:1.25;font-family:Helvetica;fill:#222234;stroke-width:0.264583"
       d="m 149.80814,43.847832 8.58862,37.052002 10.29394,-37.052002 h 6.69727 l 10.29395,37.052002 8.58862,-37.052002 h 6.75928 l -11.96827,45.547607 h -6.48022 L 172.07034,51.630302 161.49735,89.395439 h -6.48023 L 143.11087,43.847832 Z m 60.95752,30.85083 q 0.21704,3.875732 1.82934,6.294189 3.06958,4.526856 10.82105,4.526856 3.47265,0 6.32519,-0.992188 5.51904,-1.922363 5.51904,-6.883301 0,-3.720703 -2.32543,-5.302002 -2.35645,-1.550292 -7.3794,-2.697509 l -6.17017,-1.395264 q -6.04614,-1.364258 -8.55761,-3.007568 -4.34082,-2.852539 -4.34082,-8.526612 0,-6.13916 4.2478,-10.076904 4.2478,-3.937744 12.03027,-3.937744 7.16236,0 12.1543,3.472656 5.02295,3.441651 5.02295,11.038086 h -5.7981 q -0.46508,-3.658691 -1.98437,-5.61206 -2.82153,-3.565674 -9.58081,-3.565674 -5.45703,0 -7.84448,2.294433 -2.38746,2.294434 -2.38746,5.333008 0,3.348633 2.79053,4.898926 1.82935,0.992187 8.27857,2.480469 l 6.3872,1.457275 q 4.61988,1.054199 7.13135,2.883545 4.34082,3.193604 4.34082,9.270752 0,7.56543 -5.51904,10.821045 -5.48804,3.255615 -12.77442,3.255615 -8.4956,0 -13.30151,-4.34082 -4.80591,-4.309815 -4.71289,-11.689209 z m 12.46435,-32.091065 z m 45.5166,0 q 12.06128,0 17.85938,7.751465 4.52685,6.046143 4.52685,15.471924 0,10.200928 -5.17798,16.960205 -6.07714,7.9375 -17.33227,7.9375 -10.51099,0 -16.52612,-6.945312 -5.36402,-6.697266 -5.36402,-16.9292 0,-9.239746 4.58887,-15.812988 5.89111,-8.433594 17.42529,-8.433594 z m 0.62012,42.602051 q 8.15454,0 11.78223,-5.829101 3.65869,-5.860108 3.65869,-13.456543 0,-8.030518 -4.2168,-12.929444 -4.18579,-4.898926 -11.47217,-4.898926 -7.06933,0 -11.53418,4.86792 -4.46484,4.836914 -4.46484,14.293702 0,7.565429 3.81372,12.774414 3.84473,5.177978 12.43335,5.177978 z m -0.43408,-42.602051 z m 30.13769,1.240235 h 31.59497 v 5.581054 h -25.4248 V 63.2575 h 22.35522 v 5.426025 h -22.35522 v 20.711914 h -6.17017 z m 71.34449,0 v 5.426025 h -15.3479 v 40.121582 h -6.26319 V 49.273857 h -15.3479 v -5.426025 z"
       id="text7325"
       aria-label="WSOFT" /><g
       id="layer1-5"
       transform="translate(13.213157,-3.4411966)"><path
         sodipodi:type="star"
         style="fill:#443be8;stroke:#68d63c;stroke-width:30.236;stroke-linecap:round;stroke-linejoin:round;stroke-opacity:0"
         id="path966-2"
         sodipodi:sides="3"
         sodipodi:cx="96.932037"
         sodipodi:cy="52.194176"
         sodipodi:r1="103.14563"
         sodipodi:r2="51.572815"
         sodipodi:arg1="1.5707963"
         sodipodi:arg2="2.6179939"
         d="M 96.93204,155.33981 7.6053002,0.62136317 186.25877,0.62135839 Z"
         transform="matrix(0.3873522,0,0,0.4082798,10.300097,40.758733)"
         /><path
         sodipodi:type="star"
         style="fill:#5a82e3;fill-opacity:1;stroke:#68d63c;stroke-width:30.236;stroke-linecap:round;stroke-linejoin:round;stroke-opacity:0"
         id="path966-3-2"
         sodipodi:sides="3"
         sodipodi:cx="96.932037"
         sodipodi:cy="52.194176"
         sodipodi:r1="103.14563"
         sodipodi:r2="51.572815"
         sodipodi:arg1="1.5707963"
         sodipodi:arg2="2.6179939"
         transform="matrix(0.3873522,0,0,0.4082798,49.705241,40.753998)"
         d="M 96.93204,155.33981 7.6053002,0.62136317 186.25877,0.62135839 Z" /></g></g></svg>
